HIERARCHY
ROOT Hips
{
	OFFSET 0.00000 0.00000 0.00000
	CHANNELS 6 Xposition Yposition Zposition Zrotation Yrotation Xrotation 
	JOINT LHipJoint
	{
		OFFSET 0 0 0
		CHANNELS 3 Zrotation Yrotation Xrotation
		JOINT LeftHip
		{
			OFFSET 1.30186 -1.90722 0.65024
			CHANNELS 3 Zrotation Yrotation Xrotation
			JOINT LeftKnee
			{
				OFFSET 2.56413 -7.04489 0.00000
				CHANNELS 3 Zrotation Yrotation Xrotation
				JOINT LeftAnkle
				{
					OFFSET 2.79321 -7.67428 0.00000
					CHANNELS 3 Zrotation Yrotation Xrotation
					JOINT LeftToe
					{
						OFFSET 0.15723 -0.43198 2.08537
						CHANNELS 3 Zrotation Yrotation Xrotation
						End Site
						{
							OFFSET 0.00000 -0.00000 1.07411
						}
					}
				}
			}
		}
	}
	JOINT RHipJoint
	{
		OFFSET 0 0 0
		CHANNELS 3 Zrotation Yrotation Xrotation
		JOINT RightHip
		{
			OFFSET -1.28627 -1.90723 0.65024
			CHANNELS 3 Zrotation Yrotation Xrotation
			JOINT RightKnee
			{
				OFFSET -2.56567 -7.04913 0.00000
				CHANNELS 3 Zrotation Yrotation Xrotation
				JOINT RightAnkle
				{
					OFFSET -2.75597 -7.57198 0.00000
					CHANNELS 3 Zrotation Yrotation Xrotation
					JOINT RightToe
					{
						OFFSET -0.17500 -0.48081 2.22901
						CHANNELS 3 Zrotation Yrotation Xrotation
						End Site
						{
							OFFSET -0.00000 -0.00000 1.14762
						}
					}
				}
			}
		}
	}
	JOINT lowerback
	{
		OFFSET 0 0 0
		CHANNELS 3 Zrotation Yrotation Xrotation
		JOINT Chest
		{
			OFFSET -0.04522 2.07467 -0.16566
			CHANNELS 3 Zrotation Yrotation Xrotation
			JOINT Chest2
			{
				OFFSET -0.01178 2.08825 -0.05393
				CHANNELS 3 Zrotation Yrotation Xrotation
				JOINT lowerneck
				{
					OFFSET 0 0 0
					CHANNELS 3 Zrotation Yrotation Xrotation
					JOINT Neck
					{
						OFFSET -0.05182 1.80489 0.16014
						CHANNELS 3 Zrotation Yrotation Xrotation
						JOINT Head
						{
							OFFSET 0.14739 1.78840 -0.33342
							CHANNELS 3 Zrotation Yrotation Xrotation
							End Site
							{
								OFFSET 0.04364 1.83899 -0.13460
							}
						}
					}
				}
				JOINT LeftCollar
				{
					OFFSET 0 0 0
					CHANNELS 3 Zrotation Yrotation Xrotation
					JOINT LeftShoulder
					{
						OFFSET 3.01264 1.29090 -0.06579
CHANNELS 3 Zrotation Xrotation Yrotation
						JOINT LeftElbow
						{
OFFSET 0 -5.556800 0.000000
CHANNELS 3 Zrotation Xrotation Yrotation
							JOINT LeftWrist
							{
OFFSET 0 -3.639790 -0.000000
CHANNELS 3 Zrotation Xrotation Yrotation
								JOINT lhand
								{
									OFFSET 0 0 0
CHANNELS 3 Zrotation Xrotation Yrotation
									JOINT LFingers
									{
OFFSET 0 -0.569420 -0.000000
CHANNELS 3 Zrotation Xrotation Yrotation
										End Site
										{
OFFSET 0 -0.459080 -0.000000
										}
									}
								}
								JOINT LThumb
								{
OFFSET 0 0.000000 0.000000
CHANNELS 3 Zrotation Xrotation Yrotation
									End Site
									{
OFFSET 0 -0.466090 0.466090
									}
								}
							}
						}
					}
				}
				JOINT RightCollar
				{
					OFFSET 0 0 0
					CHANNELS 3 Zrotation Yrotation Xrotation
					JOINT RightShoulder
					{
						OFFSET -3.15796 1.37283 -0.36748
CHANNELS 3 Zrotation Xrotation Yrotation
						JOINT RightElbow
						{
OFFSET 0 -5.343390 0.000000
CHANNELS 3 Zrotation Xrotation Yrotation
							JOINT RightWrist
							{
OFFSET 0 -3.651010 -0.000000
CHANNELS 3 Zrotation Xrotation Yrotation
								JOINT rhand
								{
									OFFSET 0 0 0
CHANNELS 3 Zrotation Xrotation Yrotation
									JOINT RFingers
									{
OFFSET 0 -0.694250 -0.000000
CHANNELS 3 Zrotation Xrotation Yrotation
										End Site
										{
OFFSET 0 -0.559720 -0.000000
										}
									}
								}
								JOINT RThumb
								{
OFFSET 0 0.000000 0.000000
CHANNELS 3 Zrotation Xrotation Yrotation
									End Site
									{
OFFSET 0 -0.568270 0.568270
									}
								}
							}
						}
					}
				}
			}
		}
	}
}
MOTION
Frames: 6
Frame Time: 0.008333333333333333
16.607200 16.360400 -19.301900 8.420300 -17.321400 11.679100 0.000000 0.000000 0.000000 -21.374700 8.627100 -1.818100 5.082500 13.476100 41.177800 0.846000 2.322500 16.749300 0.089700 -1.931400 -5.316200 0.000000 0.000000 0.000000 15.851400 20.605500 -54.357100 -6.117200 -14.541000 45.450300 0.168100 7.868700 -0.386100 -2.101600 -9.074600 26.029000 -4.290100 -4.304000 13.463500 -0.370400 -6.278000 3.586100 2.998100 -3.094500 -3.310400 2.700200 1.688500 -14.508200 -8.325900 2.569200 6.362000 -2.820400 0.813400 4.416600 0.000000 0.000000 0.000000 -32.263000 -41.419100 -121.573200 77.939700 -59.443200 49.575000 48.388300 36.552200 -26.697500 0.000000 0.000000 0.000000 -7.125000 0.000000 0.000000 25.699300 65.370800 -13.039900 0.000000 0.000000 0.000000 -9.729900 -29.437000 15.076200 -128.749700 -53.487500 -92.824100 -48.265700 -58.240700 -45.855700 0.000000 0.000000 0.000000 7.125000 0.000000 -0.000000 -3.640700 -27.065000 -4.905000
16.565746 16.449130 -18.994099 8.466722 -16.990932 11.737089 0.000000 0.000000 0.000000 -20.761738 8.326131 -3.411598 5.722477 14.144799 43.839712 0.990080 1.272174 18.418953 0.486774 -4.285201 -11.905692 0.000000 0.000000 0.000000 15.717412 21.019497 -54.315568 -6.641276 -15.017179 47.494980 0.110654 7.008411 -1.501168 -3.422231 -11.262739 33.269104 -3.782016 -4.326435 13.693904 -0.196433 -6.241825 3.480679 2.921402 -3.068494 -3.584276 2.522506 1.739347 -14.322743 -8.648916 2.710485 6.451740 -2.881417 0.859978 4.426769 0.000000 0.000000 0.000000 -32.753928 -41.033127 -121.325485 78.646050 -59.506623 50.183537 47.585069 36.308366 -25.772701 0.000000 0.000000 0.000000 -7.125000 0.000000 0.000000 23.993860 64.022378 -11.394545 0.000000 0.000000 0.000000 -10.137532 -29.468440 14.730361 -129.775495 -53.083284 -93.645807 -24.427347 -36.687911 -40.577135 0.000000 0.000000 0.000000 7.125000 0.000000 0.000000 6.161407 -13.803107 7.074456
16.547832 16.454144 -18.713431 8.285092 -16.721856 11.850945 0.000000 0.000000 0.000000 -19.940120 7.715547 -5.604599 6.808557 15.128640 48.075061 1.003363 -0.489055 19.164900 0.744099 -5.488237 -15.312004 0.000000 0.000000 0.000000 15.248500 22.204797 -54.466006 -7.214919 -15.502088 49.668358 -0.041781 3.007325 -4.887925 -2.706687 -10.006545 29.179062 -3.129706 -4.327871 14.120587 0.011685 -6.156524 3.383934 2.809781 -3.017456 -3.969499 2.449473 1.802296 -14.436458 -8.882191 2.849174 6.676200 -2.931934 0.903019 4.526624 0.000000 0.000000 0.000000 -33.231926 -40.753084 -121.267804 79.303053 -59.562476 50.749856 47.439527 36.506050 -25.144697 0.000000 0.000000 0.000000 -7.125000 0.000000 0.000000 23.507429 63.227980 -10.699420 0.000000 0.000000 0.000000 -10.563233 -29.670574 14.480562 -130.562792 -52.764387 -94.274164 -9.614905 -25.242835 -36.119052 0.000000 0.000000 0.000000 7.125000 0.000000 0.000000 12.912788 -5.930933 14.386590
16.542276 16.409611 -18.455257 7.910763 -16.510982 11.961403 0.000000 0.000000 0.000000 -18.883862 7.012903 -7.987020 8.070928 16.143664 52.773940 0.951098 -2.240050 19.377458 0.840593 -5.847521 -16.342867 0.000000 0.000000 0.000000 14.717735 23.781079 -54.559251 -7.793697 -15.959650 51.806651 -0.165810 -0.056199 -7.697926 -1.915201 -8.681129 24.806660 -2.413056 -4.248453 14.676786 0.242343 -5.949054 3.368909 2.670504 -2.909419 -4.347869 2.481658 1.823936 -14.813692 -9.019445 2.907748 6.975887 -2.976623 0.907366 4.687386 0.000000 0.000000 0.000000 -33.769380 -40.569403 -121.514938 79.958761 -59.614869 51.315330 47.547086 36.827749 -24.752349 0.000000 0.000000 0.000000 -7.125000 0.000000 0.000000 23.534193 62.791362 -10.471299 0.000000 0.000000 0.000000 -11.062454 -30.026827 14.125264 -131.235056 -52.483780 -94.808492 -1.376629 -20.034897 -33.036767 0.000000 0.000000 0.000000 7.125000 0.000000 0.000000 17.061577 -1.836695 18.411851
16.539401 16.344538 -18.213227 7.428513 -16.344267 11.968906 0.000000 0.000000 0.000000 -17.626650 6.359008 -10.253995 9.341898 17.011356 57.249306 0.883948 -3.379814 19.289518 0.760487 -5.546335 -15.478972 0.000000 0.000000 0.000000 14.321893 25.407405 -54.381084 -8.350806 -16.369163 53.813398 -0.203466 -0.166897 -8.567964 -2.078233 -9.024332 25.873385 -1.727286 -4.064346 15.379764 0.471405 -5.600188 3.436078 2.526175 -2.734774 -4.720474 2.557348 1.769063 -15.227482 -9.040649 2.841157 7.248425 -3.002567 0.858749 4.836579 0.000000 0.000000 0.000000 -34.348794 -40.405346 -122.015206 80.628122 -59.665295 51.892821 47.580816 36.965448 -24.444046 0.000000 0.000000 0.000000 -7.125000 0.000000 0.000000 23.477439 62.430417 -10.247824 0.000000 0.000000 0.000000 -11.654147 -30.414238 13.570923 -131.879261 -52.208336 -95.318749 2.417201 -17.977176 -31.619305 0.000000 0.000000 0.000000 7.125000 0.000000 0.000000 19.096726 -0.186905 20.321123
16.529076 16.284298 -17.974284 7.128941 -16.169834 11.545282 0.000000 0.000000 0.000000 -16.390713 5.727260 -12.246819 10.705148 17.775694 61.804132 0.831160 -3.206468 18.668172 0.458509 -4.311018 -11.958790 0.000000 0.000000 0.000000 14.146917 26.669581 -53.642130 -8.899258 -16.740154 55.737597 -0.270383 -0.611946 -10.049055 -1.835641 -8.511590 24.281207 -1.290233 -3.840308 16.584805 0.614631 -5.236961 3.348823 2.466944 -2.541943 -5.507093 2.365060 1.627079 -14.638353 -8.839511 2.662221 7.168156 -2.922609 0.795637 4.698398 0.000000 0.000000 0.000000 -34.634392 -39.902308 -122.152532 81.222453 -59.706594 52.405951 47.257644 36.404110 -23.669382 0.000000 0.000000 0.000000 -7.125000 0.000000 0.000000 22.716748 61.393522 -9.339405 0.000000 0.000000 0.000000 -12.261209 -30.262473 12.999803 -132.504876 -51.933295 -95.812162 3.200326 -17.399070 -31.765481 0.000000 0.000000 0.000000 7.125000 0.000000 0.000000 19.516158 -0.280681 20.858629
